<?xml version="1.0" standalone="no"?>
<!DOCTYPE svg PUBLIC "-//W3C//DTD SVG 20010904//EN"
 "http://www.w3.org/TR/2001/REC-SVG-20010904/DTD/svg10.dtd">
<svg version="1.0" xmlns="http://www.w3.org/2000/svg"
 width="500.000000pt" height="500.000000pt" viewBox="0 0 500.000000 500.000000"
 preserveAspectRatio="xMidYMid meet">
<metadata>
Created by potrace 1.11, written by Peter Selinger 2001-2013
</metadata>
<g transform="translate(0.000000,500.000000) scale(0.100000,-0.100000)"
fill="#000000" stroke="none">
<path d="M2175 4485 c-504 -67 -842 -283 -1011 -649 -119 -258 -119 -583 0
-841 103 -222 283 -403 521 -522 180 -91 347 -145 880 -283 400 -104 526 -154
618 -247 154 -154 136 -405 -42 -583 -151 -151 -342 -208 -657 -197 -257 8
-400 63 -545 207 -120 119 -190 253 -233 450 l-17 76 -377 -38 c-207 -20 -379
-37 -380 -38 -6 0 9 -101 30 -200 31 -145 64 -244 128 -375 199 -411 531 -639
1055 -722 141 -23 611 -25 750 -5 234 35 410 87 564 167 486 251 714 801 565
1365 -61 233 -213 443 -424 584 -184 124 -488 234 -935 341 -554 132 -781 244
-830 407 -60 203 66 364 347 440 74 20 106 23 288 23 184 0 213 -2 285 -23
112 -32 187 -76 250 -144 67 -72 119 -176 148 -296 l22 -92 65 5 c36 2 153 7
260 10 107 3 254 8 327 11 l131 7 -5 56 c-28 328 -144 580 -356 777 -202 188
-482 299 -846 334 -140 14 -454 11 -576 -5z"/>
</g>
</svg>
